<?xml version="1.0" standalone="no"?>
<svg viewBox="0 0 200 200" xmlns="http://www.w3.org/2000/svg">
  <path fill="#111" d="M45.9,-79.8C59.5,-71.6,70.6,-59.4,75.3,-45.4C80,-31.5,78.3,-15.7,75.6,-1.5C72.9,12.6,69.3,25.3,64.5,39.1C59.7,52.9,53.7,67.8,42.8,77.6C31.9,87.4,15.9,92,1.1,90.1C-13.8,88.3,-27.5,79.9,-39.7,70.8C-51.9,61.8,-62.5,52,-68.8,40.1C-75.1,28.2,-77.1,14.1,-76.6,0.3C-76,-13.5,-73,-26.9,-67.8,-40.8C-62.6,-54.6,-55.3,-68.9,-43.7,-78.3C-32,-87.7,-16,-92.2,0.1,-92.3C16.1,-92.4,32.2,-88.1,45.9,-79.8Z" transform="translate(100 100)" />
</svg>
