<?xml version="1.0" standalone="no"?>
<svg viewBox="0 0 200 200" xmlns="http://www.w3.org/2000/svg">
  <path fill="#000000" d="M41.2,-67.5C55.5,-63,70.9,-56.4,77.8,-44.8C84.7,-33.2,83.1,-16.6,83.1,0C83.1,16.6,84.7,33.2,79.3,47.3C73.8,61.4,61.4,73.1,47,79.8C32.6,86.6,16.3,88.4,0.7,87.3C-14.9,86.1,-29.9,81.8,-44.2,75.1C-58.6,68.3,-72.3,59,-78.6,46.1C-84.9,33.1,-83.7,16.6,-82.6,0.6C-81.6,-15.4,-80.9,-30.8,-74.4,-43.4C-67.9,-56,-55.8,-65.8,-42.4,-70.8C-29.1,-75.8,-14.5,-76.2,-0.6,-75.2C13.4,-74.2,26.8,-71.9,41.2,-67.5Z" transform="translate(100 100)" />
</svg>
